<?xml version="1.0" encoding="UTF-8" standalone="no"?>
<svg
   width="456"
   height="456"
   viewBox="0 0 456 456"
   version="1.1"
   xml:space="preserve"
   style="fill-rule:evenodd;clip-rule:evenodd;stroke-linejoin:round;stroke-miterlimit:2;"
   id="svg191"
   sodipodi:docname="appiconfg.svg"
   inkscape:version="1.2.1 (9c6d41e410, 2022-07-14)"
   xmlns:inkscape="http://www.inkscape.org/namespaces/inkscape"
   xmlns:sodipodi="http://sodipodi.sourceforge.net/DTD/sodipodi-0.dtd"
   xmlns:xlink="http://www.w3.org/1999/xlink"
   xmlns="http://www.w3.org/2000/svg"
   xmlns:svg="http://www.w3.org/2000/svg"><defs
   id="defs195"><filter
     style="color-interpolation-filters:sRGB"
     inkscape:label="Drop Shadow"
     id="filter15426"
     x="-0.5309729"
     y="-0.5309729"
     width="2.2305086"
     height="2.2305086"><feFlood
       flood-opacity="1"
       flood-color="rgb(0,0,0)"
       result="flood"
       id="feFlood15416" /><feComposite
       in="flood"
       in2="SourceGraphic"
       operator="out"
       result="composite1"
       id="feComposite15418" /><feGaussianBlur
       in="composite1"
       stdDeviation="0.1"
       result="blur"
       id="feGaussianBlur15420" /><feOffset
       dx="0.1"
       dy="0.1"
       result="offset"
       id="feOffset15422" /><feComposite
       in="offset"
       in2="SourceGraphic"
       operator="atop"
       result="composite2"
       id="feComposite15424" /></filter><filter
     style="color-interpolation-filters:sRGB"
     inkscape:label="Feather"
     id="filter7226"
     x="-0.1179979"
     y="-0.2841582"
     width="1.2359958"
     height="1.5683164"><feGaussianBlur
       stdDeviation="4.09764"
       result="blur"
       id="feGaussianBlur7218" /><feComposite
       in="SourceGraphic"
       in2="blur"
       operator="atop"
       result="composite1"
       id="feComposite7220" /><feComposite
       in2="composite1"
       operator="in"
       result="composite2"
       id="feComposite7222" /><feComposite
       in2="composite2"
       operator="in"
       result="composite3"
       id="feComposite7224" /></filter><filter
     style="color-interpolation-filters:sRGB"
     inkscape:label="Drop Shadow"
     id="filter15426-8"
     x="-0.5309729"
     y="-0.5309729"
     width="2.2305086"
     height="2.2305086"><feFlood
       flood-opacity="1"
       flood-color="rgb(0,0,0)"
       result="flood"
       id="feFlood15416-6" /><feComposite
       in="flood"
       in2="SourceGraphic"
       operator="out"
       result="composite1"
       id="feComposite15418-1" /><feGaussianBlur
       in="composite1"
       stdDeviation="0.1"
       result="blur"
       id="feGaussianBlur15420-0" /><feOffset
       dx="0.1"
       dy="0.1"
       result="offset"
       id="feOffset15422-1" /><feComposite
       in="offset"
       in2="SourceGraphic"
       operator="atop"
       result="composite2"
       id="feComposite15424-4" /></filter><radialGradient
     inkscape:collect="always"
     xlink:href="#linearGradient2325"
     id="radialGradient2327"
     cx="154.50607"
     cy="120.60127"
     fx="154.50607"
     fy="120.60127"
     r="235.7305"
     gradientTransform="matrix(0.83553447,0,0,0.83551675,176.93212,47.224386)"
     gradientUnits="userSpaceOnUse" /><linearGradient
     inkscape:collect="always"
     id="linearGradient2325"><stop
       style="stop-color:#0000ff;stop-opacity:1;"
       offset="0"
       id="stop2321" /><stop
       style="stop-color:#00c8ff;stop-opacity:0.99315071;"
       offset="1"
       id="stop2323" /></linearGradient><filter
     style="color-interpolation-filters:sRGB"
     inkscape:label="Feather"
     id="filter7226-2"
     x="-0.1179979"
     y="-0.2841582"
     width="1.2359958"
     height="1.5683164"><feGaussianBlur
       stdDeviation="4.09764"
       result="blur"
       id="feGaussianBlur7218-5" /><feComposite
       in="SourceGraphic"
       in2="blur"
       operator="atop"
       result="composite1"
       id="feComposite7220-6" /><feComposite
       in2="composite1"
       operator="in"
       result="composite2"
       id="feComposite7222-8" /><feComposite
       in2="composite2"
       operator="in"
       result="composite3"
       id="feComposite7224-7" /></filter><filter
     style="color-interpolation-filters:sRGB"
     inkscape:label="Drop Shadow"
     id="filter15426-88"
     x="-0.5309729"
     y="-0.5309729"
     width="2.2305086"
     height="2.2305086"><feFlood
       flood-opacity="1"
       flood-color="rgb(0,0,0)"
       result="flood"
       id="feFlood15416-0" /><feComposite
       in="flood"
       in2="SourceGraphic"
       operator="out"
       result="composite1"
       id="feComposite15418-5" /><feGaussianBlur
       in="composite1"
       stdDeviation="0.1"
       result="blur"
       id="feGaussianBlur15420-7" /><feOffset
       dx="0.1"
       dy="0.1"
       result="offset"
       id="feOffset15422-7" /><feComposite
       in="offset"
       in2="SourceGraphic"
       operator="atop"
       result="composite2"
       id="feComposite15424-0" /></filter></defs><sodipodi:namedview
   id="namedview193"
   pagecolor="#ffffff"
   bordercolor="#666666"
   borderopacity="1.0"
   inkscape:showpageshadow="2"
   inkscape:pageopacity="0.0"
   inkscape:pagecheckerboard="0"
   inkscape:deskcolor="#d1d1d1"
   showgrid="false"
   inkscape:zoom="2.0701754"
   inkscape:cx="253.36017"
   inkscape:cy="193.46186"
   inkscape:window-width="2560"
   inkscape:window-height="1336"
   inkscape:window-x="1912"
   inkscape:window-y="-8"
   inkscape:window-maximized="1"
   inkscape:current-layer="svg191" />
    
    
    
    
<ellipse
   style="fill:#ffffff;fill-opacity:1;stroke-width:3.22817;stroke-linecap:square;stroke-dashoffset:6.01999;paint-order:stroke markers fill"
   id="path1405"
   cx="195.08475"
   cy="44.682201"
   rx="10.627119"
   ry="9.9025421" /><ellipse
   style="fill:#ffffff;fill-opacity:1;stroke-width:3.01656;stroke-linecap:square;stroke-dashoffset:6.01999;paint-order:stroke markers fill"
   id="path327"
   cx="373.88135"
   cy="243.94066"
   rx="196.6017"
   ry="197.56779" /><path
   d="m 373.89684,441.13795 c 108.60611,0 196.9572,-88.35944 196.9572,-196.9572 0,-108.59693 -88.35944,-196.956364 -196.9572,-196.956364 -108.59775,0 -196.96472,88.351084 -196.96472,196.956364 0,108.60611 88.3586,196.9572 196.96472,196.9572 z M 528.81912,209.26543 c -16.42826,-9.5794 -12.32078,1.3661 -12.32078,1.3661 0,0 0,0 10.95302,9.5794 10.95468,9.58024 19.16804,13.69441 15.0605,27.10892 -4.10582,13.41618 -10.95302,1.63848 -24.6399,12.59318 -13.69524,10.95302 16.4266,13.69357 17.7927,30.12017 1.36775,16.42828 -16.4266,8.21498 -24.6399,24.64159 -8.21331,16.42661 -1.3661,34.22766 -5.47359,49.28818 -4.10581,15.06051 -38.33516,35.59544 -50.76707,42.44264 -12.43192,6.84721 -3.99469,-15.0605 0,-30.12186 3.99468,-15.06133 -9.47495,-31.48794 -9.47495,-58.86925 0,-27.3813 -8.21332,-19.16632 -32.8549,-19.16632 -24.63991,0 -35.59377,-13.69524 -38.33432,-39.70293 -2.74055,-26.01436 20.53409,-52.02121 31.48711,-60.23451 10.95471,-8.21414 26.01604,-16.42744 41.0682,-8.21414 15.0605,8.21414 20.53409,16.42744 36.9607,16.42744 16.42661,0 16.42661,-5.47275 26.01437,-12.32079 9.5794,-6.8472 -13.69525,-15.06051 -27.38047,-13.63007 -13.68688,1.43042 -10.95469,-8.26929 -28.7474,-15.11649 -17.79438,-6.84721 -24.64157,6.8472 -30.12185,9.5794 -5.47359,2.74055 -24.63991,10.95386 -26.55914,0 -1.90919,-10.95385 10.12417,-12.31995 22.45165,-12.31995 12.32079,0 1.36609,-9.57941 -2.73972,-16.42745 -4.10748,-6.8472 -12.32079,-6.8472 -18.25642,-12.19212 -5.92895,-5.34492 7.30257,-15.18835 20.98778,-11.92057 13.6869,3.26778 8.21331,13.15967 23.27381,11.79274 15.06052,-1.36694 0,-15.06052 0,-28.32379 0,-13.263284 16.42828,-12.751934 27.3813,-18.040874 10.95303,-5.28976 24.63993,23.090004 34.22768,34.571924 3.17252,3.80335 7.7028,2.11725 12.3375,-1.76548 24.21711,27.86841 40.41227,62.85558 44.98181,101.38207 -19.57323,7.31929 -18.3015,-4.14592 -32.66772,-12.52716 z M 373.89684,55.213756 c 7.55825,0 14.99701,0.49548 22.32381,1.3661 -2.68458,7.47052 -7.04857,13.04771 -7.04857,13.04771 0,0 -5.47191,17.7927 -17.80022,19.16715 -12.32832,1.37446 -27.3813,0 -34.22851,10.95387 -6.8472,10.953854 -5.47275,30.121854 -16.42661,19.167154 -10.95385,-10.95386 -1.36609,-11.79273 -12.32079,-23.010624 -10.95386,-11.21705 -13.69441,-11.21705 -19.16715,-11.21705 -1.61426,0 -3.44408,-2.78817 -4.89791,-6.86308 26.67778,-14.41379 57.17479,-22.61123 89.56595,-22.61123 z m -114.25432,38.57496 c -0.30413,1.97353 1.42959,4.84191 9.84343,8.349494 16.42744,6.84721 20.21408,20.40626 12.64832,19.87068 -7.56661,-0.53557 -38.31176,3.65881 -10.03561,11.87211 28.28367,8.21414 25.95088,17.84118 13.37525,21.94783 -12.57648,4.10749 -9.88356,-13.67019 -12.6241,4.13087 -2.74055,17.80107 -5.49698,16.43497 -14.3971,19.17552 -8.90094,2.74055 -25.33591,16.43497 -25.33591,26.01521 0,9.5794 -5.4811,14.94102 5.47276,23.15432 10.95385,8.21331 -3.42821,23.23538 -8.60518,12.28905 -6.21637,-13.13544 -10.56282,-20.38287 -17.41003,-21.75649 -6.84721,-1.36609 -15.66794,9.57941 0,20.53326 15.66795,10.95386 16.42744,17.80107 16.42744,26.01437 0,8.21331 11.33738,8.21331 20.04615,6.84721 8.70126,-1.3661 26.57417,21.90854 32.70282,31.48795 6.12029,9.58107 17.07415,19.16799 32.13465,23.27381 15.06051,4.10749 20.5341,13.69525 12.3208,20.53409 -8.21331,6.84721 -9.57941,23.27381 -19.16716,27.38131 -9.58776,4.10581 -10.95386,16.4266 -16.42745,21.90854 -3.21179,3.2118 -6.3275,7.38112 -8.9327,12.20048 -8.1732,-4.59377 -15.97124,-9.77993 -23.34566,-15.49331 -0.22394,-1.21404 -0.47124,-2.44479 -0.58321,-3.55436 -1.3661,-13.69525 -2.74055,-30.12187 -10.95386,-36.96072 -8.21414,-6.8472 -13.69441,-16.42659 -16.42744,-27.3813 -2.73303,-10.95302 4.10665,-27.38046 -1.3661,-38.33515 -5.47275,-10.95302 -5.47275,-0.68681 -16.42745,-16.08237 -10.95385,-15.39723 -10.95385,-15.40558 -17.80106,-27.72554 -3.6588,-6.59153 -6.1278,-17.09754 -7.64597,-28.16419 7.59751,-49.38511 34.41065,-92.51373 72.51437,-121.532674 z"
   id="path2"
   style="fill:url(#radialGradient2327);fill-opacity:1;stroke:none;stroke-width:1.91277;stroke-dasharray:none;stroke-opacity:1" /><ellipse
   style="fill:#ffffff;fill-opacity:1;stroke:none;stroke-width:0.589326;stroke-linecap:square;stroke-dashoffset:6.01999;paint-order:stroke markers fill;filter:url(#filter7226-2)"
   id="path6833"
   cx="178.90909"
   cy="60.146961"
   rx="41.671658"
   ry="17.304333"
   transform="matrix(1.9805469,-0.40689518,0.07544215,3.0730725,-30.868152,-30.885614)" /><path
   style="fill:none;stroke:#ffffff;stroke-width:0.637589px;stroke-linecap:butt;stroke-linejoin:miter;stroke-opacity:1"
   d="m 201.38466,150.76267 c 0,0 58.43326,29.15335 160.76204,-6.9207 102.32876,-36.07404 103.63109,-72.932134 103.63109,-72.932134"
   id="path8458"
   sodipodi:nodetypes="czc" /><path
   style="fill:none;stroke:#ffffff;stroke-width:0.637589px;stroke-linecap:butt;stroke-linejoin:miter;stroke-opacity:1"
   d="m 183.33919,195.67013 c 0,0 87.47066,43.28998 194.00222,5.68766 106.53155,-37.60233 132.66849,-99.67711 132.66849,-99.67711"
   id="path8458-8"
   sodipodi:nodetypes="czc" /><path
   style="fill:none;stroke:#ffffff;stroke-width:0.637589px;stroke-linecap:butt;stroke-linejoin:miter;stroke-opacity:1"
   d="m 177.03241,256.80465 c 0,0 117.27222,40.61546 215.78027,9.12627 98.50805,-31.48918 155.59273,-112.66751 155.59273,-112.66751 M 402.73607,316.96356"
   id="path8458-8-2"
   sodipodi:nodetypes="czc" /><path
   style="fill:none;stroke:#ffffff;stroke-width:0.637589px;stroke-linecap:butt;stroke-linejoin:miter;stroke-opacity:1"
   d="m 197.10364,331.86913 c 0,0 82.50376,41.76166 206.99265,12.56491 C 528.58518,315.2373 571.15116,227.94582 571.15116,227.94582 M 305.499,60.973466 c 0,0 -7.85332,115.581084 27.80135,216.590824 38.22331,108.28671 103.63109,152.87184 103.63109,152.87184"
   id="path8458-8-2-0"
   sodipodi:nodetypes="czccsc" /><path
   style="fill:none;stroke:#ffffff;stroke-width:0.637589px;stroke-linecap:butt;stroke-linejoin:miter;stroke-opacity:1"
   d="m 263.01075,407.45031 c 0,0 90.90931,22.27604 173.75246,-5.01036 82.84312,-27.28639 115.47526,-77.51697 115.47526,-77.51697"
   id="path8458-8-2-0-9"
   sodipodi:nodetypes="czc" /><ellipse
   style="fill:none;fill-opacity:1;stroke:#0000ff;stroke-width:2.09761;stroke-linecap:square;stroke-dasharray:none;stroke-dashoffset:6.01999;stroke-opacity:1;paint-order:stroke markers fill"
   id="path15428"
   cx="373.69873"
   cy="243.98798"
   rx="196.67413"
   ry="197.43828" /><rect
   style="fill:#ffffff;fill-opacity:1;stroke:#000000;stroke-width:3.18795;stroke-linecap:square;stroke-dasharray:none;stroke-dashoffset:6.01999;stroke-opacity:1;paint-order:stroke markers fill"
   id="rect13761"
   width="256.36963"
   height="249.87442"
   x="154.68088"
   y="-119.73391"
   rx="17.840675"
   ry="17.554699"
   transform="rotate(43.727656)" /><circle
   style="fill:#ffffff;fill-opacity:1;stroke:#000000;stroke-width:0.15;stroke-linecap:square;stroke-dasharray:none;stroke-dashoffset:6.01999;stroke-opacity:1;paint-order:stroke markers fill;filter:url(#filter15426-88)"
   id="path15306"
   cx="-9.8513975"
   cy="5.8068233"
   r="0.29662532"
   transform="matrix(21.252979,0,0,21.252979,405.59824,-80.202599)" /><path
   d="m 202.77179,348.05387 -7.0297,-6.93265 6.93264,-7.02973 7.02972,6.93267 z m -7.0297,-6.93265 -7.02971,-6.93266 6.93266,-7.0297 7.02969,6.93263 z m -7.02971,-6.93266 -7.02969,-6.93266 6.93265,-7.0297 7.0297,6.93266 z m -7.02969,-6.93266 -7.02971,-6.93266 6.93264,-7.02972 7.02972,6.93268 z m -7.02971,-6.93266 -7.0297,-6.93263 6.93266,-7.02973 7.02968,6.93264 z m -7.0297,-6.93263 -7.02972,-6.93269 6.93266,-7.02969 7.02972,6.93265 z m -7.02972,-6.93269 -7.02969,-6.93265 6.93265,-7.0297 7.0297,6.93266 z m -21.08909,-20.79794 -7.0297,-6.93267 6.93265,-7.02969 7.02971,6.93263 z m -14.0594,-13.8653 -7.02972,-6.93268 6.93265,-7.02972 7.02971,6.93268 z m -21.08912,-20.79798 -7.029704,-6.93267 6.932664,-7.0297 7.0297,6.93266 z m -7.029704,-6.93267 -7.0297,-6.93266 6.93264,-7.02968 7.029724,6.93264 z m -7.0297,-6.93266 -7.02969,-6.93263 6.93263,-7.02973 7.0297,6.93268 z m -7.02969,-6.93263 -7.02972,-6.93267 6.93265,-7.02971 7.0297,6.93265 z m -7.02972,-6.93267 -7.0297,-6.93265 6.93265,-7.02968 7.0297,6.93262 z m -7.0297,-6.93265 -7.029705,-6.93266 6.932665,-7.0297 7.02969,6.93268 z m -7.029705,-6.93266 -7.029697,-6.93266 6.932656,-7.0297 7.029706,6.93266 z m 147.526719,131.6234 -7.02972,-6.93267 6.93266,-7.02969 7.0297,6.93265 z m -42.17823,-41.59593 -7.0297,-6.93266 6.93266,-7.0297 7.0297,6.93266 z m -21.08909,-20.79798 -7.02971,-6.93263 6.93264,-7.02973 7.02972,6.93269 z m -21.08913,-20.79797 -7.02969,-6.93264 6.93265,-7.02969 7.02971,6.93265 z m -14.05939,-13.86529 -7.0297,-6.93266 6.93266,-7.0297 7.0297,6.93263 z m -42.178214,-41.59593 -7.029706,-6.93266 6.932666,-7.02969 7.02969,6.93263 z m 147.526694,131.62339 -7.0297,-6.93265 6.93264,-7.0297 7.02971,6.93266 z m -14.05939,-13.86529 -7.0297,-6.93266 6.93265,-7.0297 7.02969,6.93264 z m -7.0297,-6.93266 -7.02972,-6.93268 6.93266,-7.02969 7.02971,6.93267 z m -7.02972,-6.93268 -7.02968,-6.93263 6.93266,-7.0297 7.02968,6.93264 z m -14.0594,-13.86529 -7.0297,-6.93266 6.93266,-7.0297 7.0297,6.93266 z m -14.0594,-13.86532 -7.0297,-6.93263 6.93264,-7.02973 7.02972,6.93268 z m -7.0297,-6.93263 -7.02972,-6.93269 6.93266,-7.02969 7.0297,6.93265 z m -14.05942,-13.86532 -7.02969,-6.93266 6.93265,-7.02972 7.0297,6.93266 z m -7.02969,-6.93266 -7.02971,-6.93265 6.93267,-7.0297 7.02969,6.93263 z m -14.0594,-13.86534 -7.0297,-6.93263 6.93264,-7.0297 7.02971,6.93266 z m -14.05942,-13.86527 -7.029704,-6.93267 6.932664,-7.02971 7.02969,6.93267 z m -7.029704,-6.93267 -7.0297,-6.93264 6.93266,-7.0297 7.029704,6.93263 z m -7.0297,-6.93264 -7.0297,-6.93266 6.93266,-7.0297 7.0297,6.93266 z m -14.0594,-13.86534 -7.02969,-6.93263 6.93263,-7.02971 7.02972,6.93266 z m 147.526694,131.62342 -7.02971,-6.93266 6.93267,-7.0297 7.02971,6.93266 z m -14.0594,-13.86532 -7.02969,-6.93264 6.93265,-7.02971 7.02968,6.93265 z m -7.02969,-6.93264 -7.02971,-6.93267 6.93265,-7.02971 7.02971,6.93267 z m -7.02971,-6.93267 -7.02968,-6.93264 6.93264,-7.0297 7.02969,6.93263 z m -14.0594,-13.8653 -7.0297,-6.93266 6.93264,-7.0297 7.02972,6.93264 z m -14.0594,-13.8653 -7.02972,-6.93268 6.93266,-7.02971 7.0297,6.93265 z m -7.02972,-6.93268 -7.0297,-6.93265 6.93266,-7.02968 7.0297,6.93262 z m -35.1485,-34.66326 -7.02971,-6.93266 6.93265,-7.0297 7.0297,6.93264 z m -14.05942,-13.86531 -7.02969,-6.93267 6.93265,-7.02969 7.02971,6.93268 z m -7.02969,-6.93267 -7.029704,-6.93263 6.932654,-7.02972 7.0297,6.93266 z m -7.029704,-6.93263 -7.0297,-6.93266 6.93266,-7.02972 7.029694,6.93266 z m -14.0594,-13.86532 -7.02972,-6.93266 6.93266,-7.02969 7.0297,6.93263 z m 147.526704,131.6234 -7.02971,-6.93266 6.93267,-7.0297 7.02968,6.93266 z m -14.05943,-13.86532 -7.02968,-6.93265 6.93265,-7.02971 7.0297,6.93266 z m -7.02968,-6.93265 -7.02971,-6.93267 6.93263,-7.02971 7.02973,6.93267 z m -7.02971,-6.93267 -7.02969,-6.93263 6.93265,-7.0297 7.02967,6.93262 z m -14.05939,-13.86531 -7.02972,-6.93264 6.93265,-7.0297 7.02971,6.93266 z m -21.08912,-20.79797 -7.0297,-6.93262 6.93265,-7.02972 7.02971,6.93266 z m -14.0594,-13.8653 -7.0297,-6.93266 6.93266,-7.02968 7.0297,6.93262 z m -7.0297,-6.93266 -7.0297,-6.93263 6.93264,-7.0297 7.02972,6.93265 z m -14.05942,-13.86531 -7.0297,-6.93264 6.93266,-7.0297 7.0297,6.93264 z m -14.05939,-13.86527 -7.02971,-6.93268 6.93266,-7.0297 7.0297,6.93264 z m -7.02971,-6.93268 -7.0297,-6.93266 6.93264,-7.02968 7.02972,6.93264 z m -7.0297,-6.93266 -7.029694,-6.93266 6.932634,-7.0297 7.0297,6.93268 z m -14.059414,-13.86532 -7.0297,-6.93263 6.93265,-7.0297 7.0297,6.93264 z m 147.526704,131.62342 -7.02968,-6.93266 6.93262,-7.0297 7.02972,6.93266 z m -42.17821,-41.59593 -7.02971,-6.93266 6.93266,-7.02971 7.02971,6.93265 z m -35.1485,-34.66331 -7.0297,-6.93262 6.93264,-7.02971 7.02969,6.93265 z m -21.08912,-20.79795 -7.0297,-6.93264 6.93266,-7.0297 7.0297,6.93266 z m -42.178224,-41.59592 -7.0297,-6.93264 6.93266,-7.0297 7.029704,6.93266 z m 147.526714,131.62341 -7.02972,-6.93266 6.93267,-7.02972 7.02972,6.93266 z m -7.02972,-6.93266 -7.02968,-6.93266 6.93267,-7.02972 7.02968,6.93266 z m -7.02968,-6.93266 -7.0297,-6.93266 6.93265,-7.02969 7.02972,6.93263 z m -7.0297,-6.93266 -7.02972,-6.93268 6.93266,-7.02969 7.02971,6.93268 z m -7.02972,-6.93268 -7.02968,-6.93263 6.93265,-7.02972 7.02969,6.93266 z m -7.02968,-6.93263 -7.02971,-6.93266 6.93265,-7.0297 7.02971,6.93264 z m -7.02971,-6.93266 -7.02971,-6.93265 6.93267,-7.02971 7.02969,6.93266 z m -14.05941,-13.86532 -7.0297,-6.93263 6.93266,-7.02972 7.0297,6.93264 z m -14.05939,-13.86529 -7.02973,-6.93266 6.93269,-7.02972 7.02969,6.93264 z m -14.05942,-13.86531 -7.02971,-6.93268 6.93269,-7.0297 7.02969,6.93268 z m -14.0594,-13.8653 -7.0297,-6.93266 6.93266,-7.02972 7.02969,6.93264 z m -7.0297,-6.93266 -7.0297,-6.93268 6.93266,-7.02969 7.0297,6.93265 z m -7.0297,-6.93268 -7.0297,-6.93263 6.93266,-7.02972 7.0297,6.93266 z m -7.0297,-6.93263 -7.02972,-6.93266 6.93268,-7.0297 7.0297,6.93264 z m -7.02972,-6.93266 -7.0297,-6.93268 6.93268,-7.0297 7.0297,6.93268 z m -7.0297,-6.93268 -7.0297,-6.93261 6.93266,-7.02974 7.02972,6.93265 z m -7.0297,-6.93261 -7.029704,-6.93266 6.932664,-7.02972 7.0297,6.93264 z m 77.22969,62.29679 -7.02969,-6.93264 6.93263,-7.02968 7.0297,6.93264 z m -14.0594,-13.86527 -7.02969,-6.93268 6.93263,-7.02968 7.0297,6.93266 z m 70.19995,55.36419 -7.0297,-6.93265 6.93267,-7.02974 7.02969,6.93268 z m -7.0297,-6.93265 -7.0297,-6.93266 6.93266,-7.0297 7.02971,6.93262 z m -14.0594,-13.86532 -7.0297,-6.93267 6.93264,-7.0297 7.02972,6.93265 z m -7.0297,-6.93267 -7.0297,-6.93264 6.93266,-7.02972 7.02968,6.93266 z m -14.05941,-13.86528 -7.0297,-6.93268 6.93268,-7.0297 7.0297,6.93264 z m -14.0594,-13.86532 -7.0297,-6.93265 6.93266,-7.02972 7.02972,6.93266 z m -42.17822,-41.59592 -7.02969,-6.93266 6.93265,-7.02974 7.02972,6.93268 z m -7.02969,-6.93266 -7.0297,-6.93266 6.93265,-7.02972 7.0297,6.93264 z m 133.46729,117.75808 -7.02968,-6.93268 6.93264,-7.0297 7.0297,6.93268 z m -7.02968,-6.93268 -7.02972,-6.93264 6.93266,-7.02969 7.0297,6.93263 z m -7.02972,-6.93264 -7.02971,-6.93265 6.93267,-7.0297 7.0297,6.93266 z m -7.02971,-6.93265 -7.02969,-6.93268 6.93264,-7.0297 7.02972,6.93268 z m -7.02969,-6.93268 -7.02971,-6.93262 6.93267,-7.02972 7.02968,6.93264 z m -7.02971,-6.93262 -7.0297,-6.93268 6.93265,-7.02969 7.02972,6.93265 z m -14.05942,-13.86533 -7.02968,-6.93266 6.93265,-7.0297 7.02969,6.93266 z m -35.14849,-34.66327 -7.0297,-6.93266 6.93266,-7.0297 7.0297,6.93268 z m -14.0594,-13.86532 -7.0297,-6.93263 6.93266,-7.02972 7.0297,6.93265 z m -14.0594,-13.86529 -7.0297,-6.93266 6.93264,-7.0297 7.0297,6.93264 z m -7.0297,-6.93266 -7.02972,-6.93268 6.93266,-7.02968 7.0297,6.93266 z m -7.02972,-6.93268 -7.0297,-6.93264 6.93266,-7.0297 7.0297,6.93266 z m 126.4376,110.82544 -7.0297,-6.93263 6.93265,-7.02971 7.02968,6.93267 z m -7.0297,-6.93263 -7.0297,-6.93266 6.93264,-7.0297 7.02971,6.93265 z m -14.05942,-13.86534 -7.02968,-6.93264 6.93264,-7.02967 7.02968,6.93263 z m -14.0594,-13.86529 -7.02971,-6.93266 6.93265,-7.0297 7.02968,6.93268 z m -14.0594,-13.86532 -7.02971,-6.93264 6.93265,-7.02967 7.0297,6.93263 z m -21.08911,-20.79796 -7.02969,-6.93263 6.93263,-7.02972 7.02972,6.93268 z m -14.05939,-13.86531 -7.0297,-6.93266 6.93263,-7.02968 7.02971,6.93264 z m -7.0297,-6.93266 -7.0297,-6.93265 6.93264,-7.02968 7.02969,6.93265 z m -7.0297,-6.93265 -7.02972,-6.93266 6.93266,-7.02968 7.0297,6.93266 z m -14.05942,-13.8653 -7.0297,-6.93266 6.93264,-7.0297 7.0297,6.93268 z m -7.0297,-6.93266 -7.0297,-6.93266 6.93264,-7.02969 7.0297,6.93265 z m -7.0297,-6.93266 -7.0297,-6.93265 6.93264,-7.02967 7.0297,6.93263 z m -7.0297,-6.93265 -7.02969,-6.93266 6.93263,-7.02968 7.0297,6.93267 z m 147.52669,131.62341 -7.02972,-6.93265 6.93268,-7.02973 7.02971,6.93266 z m -7.02972,-6.93265 -7.02968,-6.93267 6.93266,-7.02969 7.0297,6.93263 z m -7.02968,-6.93267 -7.02971,-6.93265 6.93265,-7.0297 7.02972,6.93266 z m -7.02971,-6.93265 -7.02972,-6.93266 6.93267,-7.02972 7.0297,6.93268 z m -35.14852,-34.66327 -7.0297,-6.93263 6.93267,-7.02975 7.02967,6.93266 z m -21.08909,-20.79795 -7.02972,-6.93268 6.93268,-7.0297 7.0297,6.93266 z m -7.02972,-6.93268 -7.02969,-6.93266 6.93267,-7.0297 7.0297,6.93266 z m -7.02969,-6.93266 -7.02971,-6.93264 6.93267,-7.02971 7.02971,6.93265 z m -14.0594,-13.86529 -7.0297,-6.93266 6.93266,-7.02972 7.02969,6.93265 z m -21.08912,-20.79798 -7.0297,-6.93265 6.93268,-7.02971 7.0297,6.93267 z m -7.0297,-6.93265 -7.0297,-6.93263 6.93266,-7.02975 7.02972,6.93267 z m 140.49702,124.69073 -7.02971,-6.93266 6.93263,-7.02969 7.02972,6.93267 z m -21.08913,-20.79795 -7.0297,-6.93268 6.93264,-7.02968 7.02971,6.93268 z m -7.0297,-6.93268 -7.02968,-6.93264 6.93262,-7.02967 7.0297,6.93263 z m -7.02968,-6.93264 -7.02972,-6.93265 6.93264,-7.0297 7.0297,6.93268 z m -7.02972,-6.93265 -7.0297,-6.93266 6.93264,-7.0297 7.0297,6.93266 z m -21.0891,-20.79798 -7.02971,-6.93265 6.93263,-7.02968 7.02972,6.93266 z m -7.02971,-6.93265 -7.02969,-6.93264 6.93262,-7.0297 7.0297,6.93266 z m -14.05939,-13.8653 -7.0297,-6.93266 6.93265,-7.02969 7.02969,6.93265 z m -7.0297,-6.93266 -7.02971,-6.93265 6.93263,-7.02968 7.02973,6.93264 z m -42.17821,-41.59593 -7.02972,-6.93267 6.93263,-7.02967 7.02973,6.93266 z m -7.02972,-6.93267 -7.0297,-6.93264 6.93264,-7.02968 7.02969,6.93265 z m 91.28905,76.16219 -7.02968,-6.93265 6.93267,-7.02975 7.02969,6.93269 z m -21.0891,-20.79797 -7.02968,-6.93266 6.93265,-7.02972 7.02971,6.93268 z m -7.02968,-6.93266 -7.02969,-6.93265 6.93265,-7.02971 7.02969,6.93264 z m -7.02969,-6.93265 -7.02973,-6.93264 6.93267,-7.02972 7.02971,6.93265 z m -7.02973,-6.93264 -7.0297,-6.93266 6.93268,-7.02974 7.02969,6.93268 z m -14.0594,-13.86532 -7.02969,-6.93265 6.93267,-7.02972 7.0297,6.93267 z m -14.0594,-13.86531 -7.02969,-6.93265 6.93265,-7.02972 7.0297,6.93264 z m -7.02969,-6.93265 -7.02973,-6.93266 6.93268,-7.02973 7.0297,6.93267 z m -7.02973,-6.93266 -7.02969,-6.93265 6.93268,-7.02972 7.02969,6.93264 z m 147.52671,131.6234 -7.02968,-6.93268 6.93265,-7.02971 7.02969,6.93265 z m -7.02968,-6.93268 -7.02972,-6.93265 6.93266,-7.02968 7.02971,6.93262 z m -7.02972,-6.93265 -7.02968,-6.93266 6.93265,-7.0297 7.02969,6.93268 z m -7.02968,-6.93266 -7.02972,-6.93268 6.93264,-7.02968 7.02973,6.93266 z m -7.02972,-6.93268 -7.0297,-6.93261 6.93267,-7.0297 7.02967,6.93263 z m -7.0297,-6.93261 -7.0297,-6.93268 6.93266,-7.0297 7.02971,6.93268 z m -7.0297,-6.93268 -7.02973,-6.93264 6.93267,-7.0297 7.02972,6.93264 z m -14.05941,-13.86529 -7.02969,-6.93269 6.93264,-7.02967 7.0297,6.93265 z m -14.05941,-13.86532 -7.02969,-6.93264 6.93265,-7.02972 7.0297,6.93266 z m -7.02969,-6.93264 -7.02971,-6.93268 6.93266,-7.0297 7.0297,6.93266 z m -14.0594,-13.86532 -7.02971,-6.93265 6.93266,-7.02973 7.02969,6.93269 z m -7.02971,-6.93265 -7.02969,-6.93268 6.93266,-7.02968 7.02969,6.93263 z m -14.05939,-13.8653 -7.0297,-6.93267 6.93264,-7.02972 7.0297,6.93266 z m 119.40787,103.89274 -7.02969,-6.93265 6.93266,-7.02968 7.0297,6.93264 z m -42.1782,-41.59592 -7.02972,-6.93264 6.93267,-7.02972 7.02968,6.93266 z m -21.08912,-20.79795 -7.0297,-6.93266 6.93267,-7.0297 7.02967,6.93263 z m -14.0594,-13.86532 -7.0297,-6.93266 6.93264,-7.02969 7.0297,6.93265 z m -7.0297,-6.93266 -7.02971,-6.93263 6.93267,-7.02973 7.02968,6.93267 z m -14.0594,-13.86532 -7.02969,-6.93263 6.93264,-7.0297 7.02969,6.93264 z m -21.08911,-20.79796 -7.0297,-6.93263 6.93266,-7.02972 7.0297,6.93267 z m -7.0297,-6.93263 -7.0297,-6.93266 6.93266,-7.02972 7.0297,6.93266 z m -7.0297,-6.93266 -7.0297,-6.93267 6.93266,-7.029704 7.0297,6.932654 z m 140.497,124.69073 -7.0297,-6.93264 6.93264,-7.0297 7.02971,6.93264 z m -14.05942,-13.8653 -7.02968,-6.93268 6.93264,-7.02968 7.02971,6.93266 z m -7.02968,-6.93268 -7.02974,-6.93263 6.93267,-7.0297 7.02971,6.93265 z m -7.02974,-6.93263 -7.02966,-6.93264 6.93264,-7.0297 7.02969,6.93264 z m -14.0594,-13.86532 -7.02968,-6.93266 6.93264,-7.02968 7.0297,6.93264 z m -14.05938,-13.86529 -7.02973,-6.93269 6.93267,-7.02969 7.0297,6.93265 z m -21.08913,-20.79798 -7.0297,-6.93265 6.93267,-7.02971 7.0297,6.93264 z m -21.0891,-20.79797 -7.02969,-6.93264 6.93266,-7.02972 7.02967,6.93266 z m -14.05939,-13.86531 -7.0297,-6.93264 6.93266,-7.0297 7.0297,6.93264 z m -7.0297,-6.93264 -7.0297,-6.93267 6.93266,-7.0297 7.0297,6.93267 z m -14.0594,-13.86533 -7.0297,-6.932654 6.93264,-7.0297 7.02971,6.93267 z m -7.0297,-6.932654 -7.02972,-6.93264 6.93266,-7.02972 7.0297,6.93266 z m 147.52669,131.623404 -7.02971,-6.93264 6.93265,-7.02972 7.02972,6.93266 z m -14.0594,-13.8653 -7.02971,-6.93266 6.93265,-7.02969 7.02972,6.93265 z m -7.02971,-6.93266 -7.02971,-6.93265 6.93266,-7.0297 7.0297,6.93266 z m -7.02971,-6.93265 -7.02969,-6.93264 6.93265,-7.02972 7.0297,6.93266 z m -14.05941,-13.86532 -7.0297,-6.93264 6.93267,-7.02972 7.02968,6.93266 z m -14.0594,-13.86532 -7.0297,-6.93265 6.93266,-7.02968 7.02968,6.93262 z m -7.0297,-6.93265 -7.0297,-6.93264 6.93264,-7.0297 7.02972,6.93266 z m -7.0297,-6.93264 -7.0297,-6.93268 6.93265,-7.02968 7.02969,6.93266 z m -28.11883,-27.73063 -7.02967,-6.93266 6.93262,-7.02968 7.02972,6.93264 z m -21.08907,-20.79795 -7.0297,-6.93267 6.93265,-7.029704 7.02969,6.932674 z m 126.43759,110.82542 -7.02972,-6.93266 6.93266,-7.02968 7.02971,6.93264 z m -14.0594,-13.8653 -7.02972,-6.93265 6.93266,-7.02971 7.0297,6.93264 z m -7.02972,-6.93265 -7.0297,-6.93266 6.93264,-7.02972 7.02972,6.93267 z m -7.0297,-6.93266 -7.0297,-6.93266 6.93264,-7.02972 7.0297,6.93266 z m -14.05942,-13.86532 -7.02968,-6.93266 6.93264,-7.0297 7.0297,6.93266 z m -21.08909,-20.79795 -7.02972,-6.93266 6.93265,-7.02972 7.02972,6.93266 z m -21.0891,-20.79797 -7.02972,-6.93268 6.93265,-7.02967 7.0297,6.93264 z m -7.02972,-6.93268 -7.0297,-6.93264 6.93266,-7.0297 7.02969,6.93267 z m -21.0891,-20.79795 -7.0297,-6.93264 6.93264,-7.029704 7.0297,6.932644 z m -14.05939,-13.865314 -7.02972,-6.93264 6.93266,-7.0297 7.0297,6.93264 z m -7.02972,-6.93264 -7.0297,-6.93267 6.93266,-7.0297 7.0297,6.93267 z m -7.0297,-6.93267 -7.02969,-6.93264 6.93265,-7.02972 7.0297,6.93266 z m 147.52671,131.623404 -7.02971,-6.93264 6.93267,-7.02972 7.02968,6.93266 z m -42.17823,-41.59593 -7.0297,-6.93266 6.93265,-7.02969 7.02972,6.93263 z m -21.0891,-20.79797 -7.02972,-6.93266 6.93266,-7.0297 7.0297,6.93268 z m -7.02972,-6.93266 -7.02968,-6.93264 6.93264,-7.02971 7.0297,6.93265 z m -14.0594,-13.8653 -7.0297,-6.93264 6.93266,-7.0297 7.0297,6.93264 z m -21.08911,-20.79797 -7.0297,-6.93265 6.93267,-7.029704 7.0297,6.932674 z m -14.0594,-13.865294 -7.02969,-6.93267 6.93266,-7.0297 7.02967,6.93264 z m -7.02969,-6.93267 -7.0297,-6.93264 6.93267,-7.0297 7.02969,6.93264 z m -7.0297,-6.93264 -7.0297,-6.93267 6.93266,-7.0297 7.02971,6.93267 z m -7.0297,-6.93267 -7.0297,-6.93266 6.93266,-7.02968 7.0297,6.93264 z m 147.52669,131.623404 -7.02968,-6.93266 6.93265,-7.02968 7.02969,6.93264 z m -7.02968,-6.93266 -7.02972,-6.93266 6.93266,-7.02969 7.02971,6.93267 z m -7.02972,-6.93266 -7.0297,-6.93263 6.93267,-7.02972 7.02969,6.93266 z m -7.0297,-6.93263 -7.02971,-6.93266 6.93265,-7.02972 7.02973,6.93266 z m -7.02971,-6.93266 -7.02969,-6.93266 6.93266,-7.0297 7.02968,6.93264 z m -7.02969,-6.93266 -7.0297,-6.93268 6.93264,-7.02967 7.02972,6.93265 z m -7.0297,-6.93268 -7.02972,-6.93263 6.93266,-7.02972 7.0297,6.93268 z m -28.11883,-27.73061 -7.0297,-6.93265 6.93265,-7.02969 7.02972,6.93265 z m -14.0594,-13.8653 -7.0297,-6.93264 6.93267,-7.02973 7.02968,6.93267 z m -21.0891,-20.79795 -7.0297,-6.932674 6.93265,-7.0297 7.02969,6.93264 z m -7.0297,-6.932674 -7.02973,-6.93267 6.93267,-7.02968 7.02971,6.93265 z"
   fill="#000000"
   id="path270"
   style="stroke-width:9.87313" /></svg>
